<svg width="135" height="70" viewBox="0 0 135 70" fill="none" xmlns="http://www.w3.org/2000/svg">
<rect y="5" width="65" height="65" rx="10" fill="#F4A140"/>
<path d="M49.88 46.72C50.36 46.9333 50.76 47.2533 51.08 47.68C51.4 48.0533 51.6133 48.48 51.72 48.96C51.88 49.44 51.9067 49.9467 51.8 50.48C51.7467 50.96 51.5867 51.3867 51.32 51.76C51.16 52.0267 51 52.2933 50.84 52.56C50.7333 52.7733 50.6 53.0133 50.44 53.28C50.28 53.5467 50.12 53.8133 49.96 54.08C49.8533 54.3467 49.6667 54.56 49.4 54.72C48.0133 55.6267 46.6 56.56 45.16 57.52C43.72 58.4267 42.1467 59.0933 40.44 59.52C39.8533 59.68 39.2667 59.76 38.68 59.76C38.1467 59.7067 37.5867 59.7067 37 59.76C34.8133 59.8667 32.7333 59.6533 30.76 59.12C28.84 58.5867 27.0267 57.7067 25.32 56.48C22.9733 54.7733 21.1867 52.6133 19.96 50C19.6933 49.4133 19.4 48.8267 19.08 48.24C18.8133 47.6 18.5467 46.96 18.28 46.32C17.6933 44.4533 17.32 42.5867 17.16 40.72C17 38.8 16.9467 36.8533 17 34.88C17.0533 33.8133 17.2133 32.7733 17.48 31.76C17.7467 30.6933 18.0933 29.7067 18.52 28.8C19.4267 26.72 20.68 24.9067 22.28 23.36C23.9333 21.76 25.9067 20.5067 28.2 19.6C29.0533 19.28 29.88 18.9333 30.68 18.56C31.5333 18.1333 32.4133 17.84 33.32 17.68C34.0667 17.52 34.8667 17.4933 35.72 17.6C36.5733 17.6533 37.4 17.7067 38.2 17.76C38.4667 17.76 38.68 17.8133 38.84 17.92C39.0533 18.0267 39.2933 18.08 39.56 18.08C40.9467 18.08 42.2 18.3733 43.32 18.96C44.44 19.5467 45.5067 20.24 46.52 21.04C47.1067 21.4667 47.6667 21.92 48.2 22.4C48.7333 22.8267 49.24 23.28 49.72 23.76C50.68 24.6667 51.16 25.52 51.16 26.32C51.16 27.12 50.9467 27.8933 50.52 28.64C50.04 29.4933 49.32 30.1067 48.36 30.48C47.4533 30.8 46.52 30.7733 45.56 30.4C45.3467 30.2933 45.16 30.2133 45 30.16C44.8933 30.1067 44.7867 30.0533 44.68 30C44.4133 29.7333 44.0933 29.4667 43.72 29.2C43.4 28.9333 43.08 28.6667 42.76 28.4C42.1733 27.92 41.5333 27.52 40.84 27.2C40.2 26.8267 39.4267 26.64 38.52 26.64C38.4133 26.64 38.28 26.6133 38.12 26.56C37.96 26.5067 37.8267 26.48 37.72 26.48C37.1867 26.4267 36.68 26.3733 36.2 26.32C35.72 26.2667 35.24 26.2933 34.76 26.4C34.2267 26.5067 33.6933 26.6667 33.16 26.88C32.68 27.0933 32.1733 27.3067 31.64 27.52C28.8667 28.64 26.92 30.4267 25.8 32.88C25.5333 33.4667 25.32 34.0533 25.16 34.64C25 35.2267 24.92 35.84 24.92 36.48C24.8667 37.6533 24.8667 38.8 24.92 39.92C25.0267 41.04 25.2667 42.1333 25.64 43.2C25.7467 43.5733 25.9067 43.9467 26.12 44.32C26.3333 44.64 26.52 44.9867 26.68 45.36C27.3733 46.8533 28.44 48.1067 29.88 49.12C31.9067 50.56 34.2533 51.2267 36.92 51.12C37.2933 51.0667 37.64 51.0667 37.96 51.12C38.3333 51.12 38.7067 51.0667 39.08 50.96C40.1467 50.6933 41.08 50.2933 41.88 49.76C42.7333 49.2267 43.6133 48.6667 44.52 48.08C44.6267 47.9733 44.7333 47.8667 44.84 47.76C44.9467 47.6 45.0533 47.44 45.16 47.28C45.2667 47.12 45.4533 46.9067 45.72 46.64C45.9867 46.3733 46.44 46.24 47.08 46.24C47.8267 46.1867 48.3333 46.2133 48.6 46.32C48.8667 46.3733 49.2933 46.5067 49.88 46.72ZM94.2019 39.68C94.5219 39.9467 94.7352 40.3733 94.8419 40.96C95.0019 41.5467 95.0552 42.08 95.0019 42.56C94.9485 43.4667 94.8152 44.3733 94.6019 45.28C94.4419 46.1867 94.2285 47.0933 93.9619 48C93.8019 48.4267 93.6419 48.8533 93.4819 49.28C93.3752 49.7067 93.1885 50.1333 92.9219 50.56C92.8152 50.7733 92.5485 51.1733 92.1219 51.76C91.7485 52.2933 91.4552 52.6933 91.2419 52.96C91.0285 53.28 90.7085 53.6 90.2819 53.92C89.8552 54.24 89.4819 54.5067 89.1619 54.72C88.5752 55.1467 88.0685 55.52 87.6419 55.84C87.2152 56.1067 86.7885 56.3733 86.3619 56.64C85.9885 56.8533 85.5885 57.0933 85.1619 57.36C84.7352 57.5733 84.2285 57.8667 83.6419 58.24C82.6285 58.8267 81.5352 59.2267 80.3619 59.44C79.2419 59.6533 78.1219 59.7333 77.0019 59.68C75.5619 59.5733 74.1219 59.4133 72.6819 59.2C71.2419 58.9867 69.8285 58.5067 68.4419 57.76C64.7619 55.7867 61.8819 52.88 59.8019 49.04C58.7352 47.1733 57.9885 45.2533 57.5619 43.28C57.1885 41.3067 56.9752 39.3067 56.9219 37.28C56.8685 36.16 57.0019 35.04 57.3219 33.92C57.6419 32.7467 57.9085 31.6 58.1219 30.48C58.1219 30.32 58.1752 30.1333 58.2819 29.92C59.1352 28.8533 59.9619 27.76 60.7619 26.64C61.6152 25.4667 62.4952 24.3733 63.4019 23.36C64.2552 22.4533 65.2152 21.7333 66.2819 21.2C67.3485 20.6667 68.4419 20.1867 69.5619 19.76C69.8285 19.6533 70.0952 19.5467 70.3619 19.44C70.6819 19.3333 70.9752 19.1733 71.2419 18.96C72.5752 17.84 74.1219 17.4133 75.8819 17.68C77.0019 17.8933 78.1219 18.0267 79.2419 18.08C80.3619 18.08 81.4552 18.3467 82.5219 18.88C82.7352 18.9867 82.9485 19.04 83.1619 19.04C83.4285 19.04 83.6419 19.0933 83.8019 19.2C84.9752 20.16 86.2285 21.04 87.5619 21.84C88.8952 22.64 89.9619 23.7333 90.7619 25.12C90.9219 25.3867 91.1352 25.6 91.4019 25.76L91.8019 26.16C92.2285 26.8 92.4685 27.4133 92.5219 28C92.5752 28.5333 92.5485 29.0667 92.4419 29.6C92.3352 29.8667 92.2552 30.0533 92.2019 30.16C92.2019 30.2667 92.1485 30.3733 92.0419 30.48C91.7752 30.8 91.5085 31.1733 91.2419 31.6C90.9752 31.9733 90.6819 32.2133 90.3619 32.32C89.7219 32.48 89.0285 32.6133 88.2819 32.72C87.5885 32.7733 86.9485 32.6933 86.3619 32.48C85.8819 32.2667 85.3752 31.9467 84.8419 31.52C84.5752 31.0933 84.1485 30.5867 83.5619 30C83.0285 29.36 82.3085 28.8 81.4019 28.32C80.5485 27.7867 79.5085 27.4133 78.2819 27.2C77.1085 26.9867 75.7219 27.0667 74.1219 27.44C72.5752 27.8667 71.2952 28.4267 70.2819 29.12C69.2685 29.76 68.4419 30.48 67.8019 31.28C67.1619 32.08 66.6552 32.9067 66.2819 33.76C65.9619 34.56 65.7219 35.3333 65.5619 36.08C65.1885 37.5733 65.1352 38.96 65.4019 40.24C65.6685 41.4667 66.0952 42.7733 66.6819 44.16C67.0019 44.8533 67.4285 45.5733 67.9619 46.32C68.5485 47.0133 69.2152 47.6533 69.9619 48.24C70.7619 48.8267 71.6419 49.3067 72.6019 49.68C73.5619 50.0533 74.6019 50.24 75.7219 50.24C77.2152 50.24 78.4685 50.1333 79.4819 49.92C80.4952 49.7067 81.3219 49.4667 81.9619 49.2C82.6552 48.9333 83.1885 48.64 83.5619 48.32C83.9885 48 84.3352 47.76 84.6019 47.6C85.1352 47.28 85.5619 46.9067 85.8819 46.48C86.2019 46.0533 86.3085 45.6267 86.2019 45.2C86.1485 44.9867 85.9085 44.8533 85.4819 44.8C85.1085 44.7467 84.6552 44.72 84.1219 44.72C83.6419 44.6667 83.1619 44.6667 82.6819 44.72C82.2019 44.72 81.8552 44.6933 81.6419 44.64C81.2152 44.5333 80.8419 44.32 80.5219 44C80.2552 43.68 79.9085 43.2 79.4819 42.56C79.3752 42.2933 79.2952 42.08 79.2419 41.92C79.1885 41.7067 79.1352 41.5467 79.0819 41.44C79.1352 41.3333 79.1619 41.28 79.1619 41.28C79.1619 41.2267 79.1885 41.1467 79.2419 41.04C79.2419 40.9867 79.2952 40.8 79.4019 40.48C79.4019 40.4267 79.4019 40.4 79.4019 40.4C79.4552 40.3467 79.4819 40.2667 79.4819 40.16C79.5885 40.0533 79.6419 39.9467 79.6419 39.84C79.6952 39.68 79.7752 39.5467 79.8819 39.44C80.3085 39.0133 81.0552 38.6667 82.1219 38.4C83.0285 38.1333 84.4419 38.08 86.3619 38.24C88.3352 38.3467 90.3885 38.4 92.5219 38.4C92.7885 38.56 93.0552 38.7733 93.3219 39.04C93.6419 39.2533 93.9352 39.4667 94.2019 39.68Z" fill="white"/>
</svg>
